<?xml version="1.0" standalone="no"?>
<!DOCTYPE svg PUBLIC "-//W3C//DTD SVG 20010904//EN"
 "http://www.w3.org/TR/2001/REC-SVG-20010904/DTD/svg10.dtd">
<svg version="1.0" xmlns="http://www.w3.org/2000/svg"
 width="300.000000pt" height="168.000000pt" viewBox="0 0 300.000000 168.000000"
 preserveAspectRatio="xMidYMid meet">

<g transform="translate(0.000000,168.000000) scale(0.100000,-0.100000)"
fill="#000000" stroke="none">
<path d="M1462 1228 c-21 -21 -13 -29 23 -22 30 5 46 0 104 -36 74 -44 88 -62
66 -80 -12 -10 -33 -1 -105 44 -105 65 -146 72 -179 30 -19 -24 -21 -40 -21
-144 0 -104 2 -120 21 -144 20 -26 49 -35 49 -16 0 6 -9 19 -20 30 -17 17 -20
33 -20 126 0 58 5 114 10 125 18 32 58 22 150 -36 48 -30 94 -55 103 -55 23 0
56 47 50 71 -8 31 -147 119 -187 119 -18 0 -37 -5 -44 -12z"/>
<path d="M1430 998 c0 -149 1 -155 23 -176 37 -35 75 -28 161 28 65 43 76 54
76 78 0 29 -26 62 -50 62 -7 0 -48 -21 -91 -47 -52 -32 -79 -54 -79 -66 0 -21
-2 -22 117 53 52 32 73 33 73 2 0 -20 -126 -102 -157 -102 -37 0 -42 22 -45
170 -2 104 -6 145 -15 148 -10 3 -13 -32 -13 -150z"/>
<path d="M1710 710 c-17 -17 -20 -33 -20 -108 0 -80 2 -91 23 -110 22 -21 32
-22 206 -22 180 0 182 0 206 25 22 21 25 33 25 103 0 65 -4 84 -21 106 l-20
26 -190 0 c-176 0 -190 -1 -209 -20z m350 -30 c12 0 40 -29 40 -42 0 -10 -29
-7 -62 6 -25 11 -53 -36 -38 -63 11 -22 44 -28 55 -11 3 6 -1 10 -9 10 -9 0
-16 9 -16 21 0 17 5 20 38 17 37 -3 37 -3 37 -47 l0 -44 -53 -4 c-45 -2 -57 1
-78 22 -28 28 -31 70 -8 103 18 26 52 43 72 36 8 -2 17 -4 22 -4z m-290 -81
c0 -71 -2 -80 -17 -77 -15 3 -18 16 -21 81 -3 72 -1 77 18 77 18 0 20 -6 20
-81z m97 39 l22 -43 0 43 c1 35 4 42 21 42 18 0 20 -7 20 -80 0 -72 -2 -80
-19 -80 -13 0 -28 15 -43 41 l-23 42 -5 -39 c-3 -27 -11 -40 -22 -42 -16 -3
-18 6 -18 77 0 78 1 81 23 81 17 0 29 -11 44 -42z"/>
<path d="M1522 613 c3 -77 3 -78 31 -81 28 -3 38 15 12 24 -11 5 -15 22 -15
70 0 51 -3 64 -15 64 -13 0 -15 -13 -13 -77z"/>
<path d="M871 654 c-35 -44 -20 -104 30 -125 32 -13 83 1 93 27 8 21 -13 28
-41 13 -30 -16 -56 -3 -61 30 -7 43 35 66 67 37 11 -10 22 -12 31 -6 12 7 11
12 -4 29 -29 32 -89 29 -115 -5z"/>
<path d="M1590 651 c0 -11 -6 -22 -12 -25 -10 -5 -10 -7 0 -12 6 -3 12 -18 12
-33 0 -33 16 -51 47 -51 26 0 31 15 8 24 -8 3 -15 17 -15 31 0 16 6 25 15 25
8 0 15 5 15 10 0 6 -7 10 -15 10 -8 0 -15 9 -15 20 0 13 -7 20 -20 20 -13 0
-20 -7 -20 -19z"/>
<path d="M1044 632 c-6 -4 -16 -17 -23 -30 -25 -48 38 -98 84 -68 33 21 34 69
3 90 -24 17 -47 20 -64 8z m47 -66 c-16 -19 -41 -10 -41 14 0 24 21 31 39 14
11 -10 12 -16 2 -28z"/>
<path d="M1201 631 c-7 -5 -22 -6 -32 -4 -17 5 -19 -1 -19 -46 0 -44 3 -51 20
-51 16 0 20 7 20 33 0 19 3 37 7 40 12 13 33 -15 33 -44 0 -19 5 -29 15 -29
24 0 21 86 -4 100 -23 12 -22 12 -40 1z"/>
<path d="M1296 627 c-23 -17 -17 -51 9 -55 11 -2 25 -8 30 -14 7 -7 -1 -8 -22
-3 -38 8 -45 -8 -12 -26 31 -16 71 4 67 33 -2 13 -11 24 -23 26 -28 5 -46 24
-20 22 43 -5 51 0 31 15 -24 18 -37 19 -60 2z"/>
<path d="M1390 586 c0 -48 19 -73 47 -61 10 5 26 7 36 6 14 -2 17 6 17 48 0
39 -4 51 -15 51 -10 0 -15 -11 -15 -35 0 -28 -4 -35 -20 -35 -16 0 -20 7 -20
35 0 24 -5 35 -15 35 -11 0 -15 -12 -15 -44z"/>
</g>
</svg>
